# Blender v2.82 (sub 7) OBJ File: ''
# www.blender.org
mtllib RTJ4_hands_LowRes.mtl
o RTJ4_hands_highRes
v -0.751673 -0.294222 0.012504
v -0.847612 -0.277538 0.025244
v -0.812090 -0.213447 0.017357
v -0.868575 -0.305798 -0.051644
v -0.807871 -0.249951 0.057034
v -0.836507 -0.269607 0.007054
v -0.819158 -0.236652 -0.032684
v -0.883977 -0.073786 -0.062477
v 0.972875 -0.256758 0.015244
v 0.967068 -0.182305 0.010167
v 0.968556 -0.183556 0.119873
v 0.975669 -0.268701 0.090883
v 0.843009 -0.264570 0.030175
v 0.815814 -0.165527 -0.056110
v 0.860888 -0.135842 0.061611
v 0.902273 -0.196835 0.154332
v 0.362011 -0.033739 0.019979
v 0.246006 -0.042065 0.133126
v 0.320938 -0.068247 0.172664
v 0.680725 -0.103064 0.118154
v -0.878399 -0.040846 -0.076678
v 0.253819 -0.357148 -0.026706
v 0.138530 -0.285387 -0.104763
v 0.118246 -0.254745 -0.195121
v 0.219909 -0.306680 -0.203179
v -0.490593 0.305431 -0.031642
v -0.753015 0.009335 -0.046581
v -0.627045 0.126699 -0.009673
v -0.465021 0.286211 0.018012
v 0.461604 -0.342498 0.128174
v 0.578828 -0.346126 -0.027523
v 0.806574 -0.332311 -0.039709
v 0.657802 -0.325035 0.151209
v -0.260659 -0.160080 -0.016741
v -0.350350 -0.115373 0.072292
v -0.403109 -0.225688 0.106890
v -0.252028 -0.214124 -0.037113
v 0.664520 -0.095569 -0.038588
v 0.258763 -0.014810 -0.075433
v 0.220663 -0.001453 -0.012081
v -0.824399 -0.151540 -0.055632
v -0.923265 -0.012296 -0.022802
v -0.864754 -0.044383 -0.084126
v 0.252449 -0.356976 0.118764
v 0.269462 -0.389285 0.057123
v -0.890848 -0.048033 -0.072140
v -0.920100 -0.135353 -0.103536
v 0.313195 -0.105962 0.249157
v 0.378208 -0.174048 0.277171
v 0.685256 -0.204954 0.194689
v 0.257309 -0.385996 -0.137212
v -0.858447 -0.283151 0.027364
v -0.865119 -0.273288 0.002861
v -0.880606 -0.253177 0.026365
v -0.848287 -0.134067 0.047248
v -0.839852 -0.297791 0.011560
v 0.642384 -0.132520 -0.152788
v 0.244996 0.002435 -0.184630
v -0.530372 -0.080728 -0.122789
v -0.340686 -0.123416 -0.147526
v -0.376855 -0.195573 -0.132329
v -0.840082 -0.231735 -0.037156
v 1.009087 -0.256590 -0.009491
v 0.925265 -0.173003 -0.006290
v 0.808240 -0.239871 -0.000047
v -0.823522 -0.063569 -0.096633
v 0.806580 -0.157419 -0.081613
v 0.812281 -0.204188 -0.167788
v 0.643946 -0.299318 -0.146934
v 0.564249 -0.214890 -0.209663
v 0.746106 -0.095388 0.034462
v 0.939453 -0.094842 -0.011936
v 0.800359 -0.114700 -0.079166
v 0.730631 -0.127475 -0.118067
v 0.281118 -0.342662 0.204488
v -0.672583 0.007081 -0.137743
v 0.809914 -0.296630 -0.129226
v 0.255663 -0.049984 0.058868
v 0.203429 -0.313260 0.013656
v 0.182141 -0.358689 0.078842
v -0.304560 -0.120432 -0.077268
v -0.922831 -0.017759 -0.032938
v -0.795424 -0.135353 0.058344
v -0.815834 -0.021882 -0.013895
v -0.550685 0.113993 -0.103556
v -0.841496 -0.110108 -0.002805
v -0.835625 -0.090239 0.052902
v -0.783659 -0.284172 0.027733
v 0.845935 -0.202579 -0.027167
v -0.936678 -0.127438 -0.096069
v -0.593383 -0.138731 -0.151328
v -0.599262 -0.287560 -0.091184
v -0.868554 -0.260665 -0.097474
v -0.293014 -0.059961 0.034912
v -0.411581 0.014968 0.076312
v -0.769710 -0.088852 0.004735
v -0.852155 -0.111583 -0.089893
v -0.994802 -0.068090 -0.021862
v -0.978537 -0.176814 -0.047357
v -0.385056 -0.265109 -0.137480
v -0.331358 -0.237396 -0.040836
v -0.391291 -0.334538 0.045989
v -0.981483 -0.204900 -0.064908
v -0.769629 -0.263208 -0.056295
v -0.982213 -0.278203 -0.002863
v -0.791644 -0.286907 -0.068036
v -0.766537 -0.265299 0.015021
v -0.998398 -0.192984 0.021899
v 0.990799 -0.213493 -0.096939
v 0.809725 -0.266542 -0.088434
v 0.786537 -0.214359 -0.001862
v 0.843328 -0.336917 0.090973
v 0.818984 -0.153226 0.067000
v -0.043895 0.022117 -0.017439
v -0.508076 0.048166 -0.070085
v -0.552913 0.066902 0.018537
v 0.432447 -0.144099 -0.246615
v 0.325259 -0.398977 -0.047009
v 0.356619 -0.335033 -0.121816
v 0.335091 -0.341802 0.017378
v -0.451632 0.198522 -0.029009
v 0.432803 -0.348071 -0.176788
v -0.795740 -0.173677 0.074842
v -0.033408 -0.008263 0.043823
v 0.889201 -0.252407 0.181375
v 0.965252 -0.294592 0.100066
v -0.749145 -0.017098 0.012837
v -0.950658 -0.221063 -0.088159
v -0.573449 -0.003793 0.077308
v -0.915595 -0.279503 -0.077924
v -0.797456 -0.210922 -0.112149
v -0.934677 -0.166121 0.046703
v 0.215124 -0.006121 -0.133178
v -0.762881 -0.181088 -0.032921
v 0.445488 -0.304570 -0.033227
v -0.729486 -0.048391 -0.113485
v 0.350660 -0.389274 0.182137
v 0.776900 -0.325604 -0.022716
v 0.827042 -0.293878 -0.124468
v 0.829176 -0.337359 0.078444
v -0.486482 -0.258924 -0.086173
v 0.875862 -0.105445 0.078141
v 0.805014 -0.143746 0.151761
v 0.000363 -0.147582 -0.008724
v 0.010583 -0.097124 0.051463
v 0.804520 -0.164514 -0.162880
v 0.117365 -0.319402 -0.034165
v 0.423389 -0.304456 -0.263298
v 0.545646 -0.339355 0.210479
v 0.783806 -0.113709 -0.107212
v 0.900897 -0.205648 0.125535
v -0.111469 -0.027913 -0.051805
v 0.814924 -0.280012 0.158539
v 0.947336 -0.292437 0.113280
v 0.979342 -0.158271 0.156260
v 0.921738 -0.090799 -0.004355
v 0.834413 -0.210531 0.187385
v 0.743467 -0.217007 -0.157106
v -0.003456 -0.057391 0.008983
v 0.963032 -0.145041 0.172936
v 0.828839 -0.088060 0.074817
v 0.790105 -0.278507 0.064914
v 0.789765 -0.208769 0.128093
v -0.997271 -0.131659 0.014260
v -0.774739 -0.181305 -0.011457
v -0.863932 -0.201894 -0.113650
vt 0.471801 0.916101
vt 0.487846 0.962645
vt 0.450380 0.962645
vt 0.485128 0.013486
vt 0.483054 0.055256
vt 0.463588 0.062744
vt 0.266778 0.874121
vt 0.260069 0.871849
vt 0.284749 0.873665
vt 0.290656 0.893741
vt 0.281772 0.887773
vt 0.300183 0.843630
vt 0.193130 0.848397
vt 0.239855 0.843426
vt 0.231306 0.847093
vt 0.743138 0.859003
vt 0.808599 0.859697
vt 0.778703 0.888776
vt 0.828447 0.341497
vt 0.800916 0.353064
vt 0.815094 0.171055
vt 0.367543 0.884099
vt 0.325726 0.833885
vt 0.416209 0.835131
vt 0.316701 0.339595
vt 0.361003 0.232904
vt 0.334726 0.346072
vt 0.447662 0.671494
vt 0.545267 0.649025
vt 0.514262 0.745685
vt 0.579933 0.319893
vt 0.579579 0.240423
vt 0.604488 0.309546
vt 0.861537 0.503233
vt 0.845434 0.510971
vt 0.911697 0.475556
vt 0.402250 0.950200
vt 0.447887 0.973468
vt 0.412120 0.974951
vt 0.488882 0.850146
vt 0.458962 0.836104
vt 0.747760 0.311488
vt 0.777914 0.350792
vt 0.360595 0.823012
vt 0.127044 0.442093
vt 0.186182 0.436413
vt 0.123733 0.448132
vt 0.286192 0.663109
vt 0.286192 0.678482
vt 0.274853 0.672709
vt 0.279204 0.686543
vt 0.154784 0.955622
vt 0.174181 0.895932
vt 0.174181 0.978650
vt 0.816450 0.753512
vt 0.798977 0.740611
vt 0.837566 0.528422
vt 0.292555 0.678195
vt 0.305234 0.664857
vt 0.305234 0.746545
vt 0.303013 0.527860
vt 0.304162 0.542511
vt 0.282196 0.549148
vt 0.189045 0.283431
vt 0.234927 0.196572
vt 0.265943 0.224049
vt 0.297753 0.609377
vt 0.300217 0.563975
vt 0.970401 0.578099
vt 0.927717 0.536055
vt 0.961410 0.475871
vt 0.575267 0.954039
vt 0.592072 0.916153
vt 0.592072 0.964410
vt 0.915337 0.472929
vt 0.776148 0.831250
vt 0.714881 0.754032
vt 0.752931 0.705012
vt 0.007562 0.868184
vt 0.030976 0.860991
vt 0.002582 0.885223
vt 0.943190 0.802014
vt 0.910098 0.793515
vt 0.961033 0.758961
vt 0.658545 0.350462
vt 0.008700 0.207745
vt 0.126000 0.341632
vt 0.117422 0.378618
vt 0.270577 0.658487
vt 0.274780 0.644994
vt 0.304162 0.652972
vt 0.395287 0.626159
vt 0.464026 0.555573
vt 0.844931 0.705376
vt 0.864620 0.841625
vt 0.864767 0.868313
vt 0.652899 0.367459
vt 0.809756 0.394604
vt 0.648134 0.404510
vt 0.241108 0.176576
vt 0.295759 0.162727
vt 0.255760 0.615045
vt 0.880718 0.186198
vt 0.855208 0.129569
vt 0.908845 0.116447
vt 0.091561 0.265831
vt 0.428342 0.937946
vt 0.863253 0.266275
vt 0.908845 0.241639
vt 0.088658 0.815021
vt 0.076654 0.887138
vt 0.965606 0.432520
vt 0.911299 0.457519
vt 0.913938 0.401486
vt 0.207770 0.323271
vt 0.282241 0.345364
vt 0.232030 0.474423
vt 0.050096 0.585591
vt 0.031655 0.554116
vt 0.051704 0.536373
vt 0.531096 0.331895
vt 0.470463 0.299243
vt 0.542852 0.292304
vt 0.948328 0.925730
vt 0.936428 0.880962
vt 0.951492 0.809234
vt 0.897525 0.820308
vt 0.092781 0.784348
vt 0.038934 0.803395
vt 0.002702 0.763685
vt 0.261446 0.685372
vt 0.273941 0.663466
vt 0.273941 0.698784
vt 0.994880 0.814663
vt 0.957925 0.920969
vt 0.955632 0.813725
vt 0.900604 0.258771
vt 0.968788 0.583282
vt 0.968788 0.621553
vt 0.960414 0.612378
vt 0.919914 0.587572
vt 0.844798 0.881430
vt 0.889848 0.996433
vt 0.847435 0.992487
vt 0.092781 0.532081
vt 0.059696 0.543731
vt 0.108663 0.926126
vt 0.127155 0.896239
vt 0.097146 0.989181
vt 0.824605 0.186470
vt 0.846326 0.412063
vt 0.833868 0.399137
vt 0.970401 0.473383
vt 0.205007 0.941807
vt 0.532900 0.550055
vt 0.933444 0.212594
vt 0.927020 0.208276
vt 0.912373 0.135140
vt 0.209144 0.026809
vt 0.130939 0.253160
vt 0.119047 0.270383
vt 0.088725 0.671776
vt 0.255917 0.479553
vt 0.407901 0.250161
vt 0.779504 0.631670
vt 0.412057 0.797977
vt 0.379106 0.773695
vt 0.446522 0.798348
vt 0.632998 0.825617
vt 0.632998 0.876643
vt 0.593753 0.869521
vt 0.626379 0.217046
vt 0.358712 0.730223
vt 0.453974 0.080547
vt 0.575809 0.459977
vt 0.300183 0.948803
vt 0.584505 0.534381
vt 0.550262 0.488906
vt 0.393777 0.141649
vt 0.344726 0.065907
vt 0.405946 0.084588
vt 0.253179 0.891769
vt 0.243448 0.868312
vt 0.353250 0.984915
vt 0.308746 0.984915
vt 0.337627 0.916750
vt 0.437106 0.222917
vt 0.915290 0.650889
vt 0.900578 0.718174
vt 0.863724 0.434364
vt 0.908050 0.400901
vt 0.908050 0.466728
vt 0.689654 0.440020
vt 0.837290 0.424292
vt 0.998673 0.928092
vt 0.998673 0.809303
vt 0.432771 0.737205
vt 0.278504 0.687619
vt 0.286193 0.700063
vt 0.274892 0.700063
vt 0.146354 0.376768
vt 0.157472 0.489390
vt 0.260974 0.540358
vt 0.529425 0.807606
vt 0.109041 0.793381
vt 0.150727 0.753363
vt 0.117085 0.850780
vt 0.728418 0.838433
vt 0.854104 0.192401
vt 0.538675 0.916368
vt 0.538675 0.971798
vt 0.519638 0.965815
vt 0.283802 0.285697
vt 0.275859 0.769211
vt 0.285050 0.836810
vt 0.253571 0.803643
vt 0.140746 0.534022
vt 0.172682 0.529507
vt 0.172682 0.715022
vt 0.042369 0.880886
vt 0.088658 0.931223
vt 0.754218 0.051516
vt 0.760883 0.157591
vt 0.700356 0.163952
vt 0.630897 0.564612
vt 0.633593 0.546301
vt 0.633593 0.589419
vt 0.911697 0.668308
vt 0.905103 0.648071
vt 0.680319 0.538001
vt 0.698407 0.638364
vt 0.641549 0.565383
vt 0.681398 0.216936
vt 0.793131 0.834521
vt 0.962989 0.269205
vt 0.912016 0.269205
vt 0.935361 0.217818
vt 0.818082 0.812490
vt 0.177177 0.529235
vt 0.252062 0.535656
vt 0.223933 0.556049
vt 0.854484 0.324269
vt 0.860878 0.274397
vt 0.888230 0.321583
vt 0.511967 0.936413
vt 0.298711 0.028419
vt 0.223113 0.067934
vt 0.129009 0.667493
vt 0.097620 0.888558
vt 0.168820 0.888558
vt 0.540215 0.968955
vt 0.563412 0.916285
vt 0.564827 0.968955
vt 0.243534 0.714644
vt 0.921881 0.358074
vt 0.868215 0.395299
vt 0.987877 0.753249
vt 0.963657 0.713555
vt 0.987877 0.676397
vt 0.097732 0.687334
vt 0.030444 0.920333
vt 0.563698 0.711493
vt 0.584505 0.799246
vt 0.254661 0.017290
vt 0.556075 0.463018
vt 0.144838 0.805865
vt 0.252062 0.705685
vt 0.209203 0.690352
vt 0.400052 0.902303
vt 0.432494 0.863645
vt 0.814467 0.022960
vt 0.836594 0.099296
vt 0.784384 0.050389
vt 0.105686 0.464886
vt 0.176821 0.921421
vt 0.939135 0.114905
vt 0.975250 0.117437
vt 0.943187 0.120931
vt 0.735568 0.925767
vt 0.975250 0.213324
vt 0.217412 0.788598
vt 0.183929 0.800733
vt 0.178138 0.734776
vt 0.698564 0.483055
vt 0.894421 0.853606
vt 0.315482 0.725648
vt 0.641805 0.312681
vt 0.676711 0.262608
vt 0.066530 0.203375
vt 0.707959 0.842892
vt 0.705189 0.866918
vt 0.462025 0.881583
vt 0.594025 0.268456
vt 0.152540 0.989181
vt 0.939403 0.009207
vt 0.983558 0.003078
vt 0.938054 0.103146
vt 0.983558 0.105688
vt 0.943922 0.566122
vt 0.918087 0.811485
vt 0.075728 0.728755
vt 0.117060 0.725479
vt 0.626379 0.456279
vt 0.285050 0.739519
vt 0.298711 0.237903
vt 0.602806 0.460263
vt 0.707457 0.456478
vt 0.889848 0.877536
vt 0.954438 0.924812
vt 0.593658 0.484399
vt 0.629734 0.479837
vt 0.629734 0.590938
vt 0.925290 0.274306
vt 0.971513 0.275617
vt 0.937542 0.388891
vt 0.901604 0.925730
vt 0.239855 0.939327
vt 0.598389 0.694624
vt 0.631435 0.604373
vt 0.631435 0.700418
vt 0.593504 0.808074
vt 0.624454 0.706923
vt 0.624454 0.820673
vt 0.965606 0.400633
vt 0.203228 0.464373
vt 0.971513 0.392175
vt 0.292604 0.755036
vt 0.306904 0.751115
vt 0.306904 0.821763
vt 0.593708 0.597363
vt 0.621068 0.880345
vt 0.621068 0.952717
vt 0.593406 0.895316
vt 0.846326 0.055549
vt 0.854081 0.432700
vt 0.413227 0.021081
vt 0.934305 0.108784
vt 0.854845 0.108784
vt 0.888814 0.085691
vt 0.871939 0.003168
vt 0.808967 0.916369
vt 0.254880 0.675475
vt 0.897803 0.677817
vt 0.961033 0.684378
vt 0.829705 0.515964
vt 0.222188 0.756589
vt 0.277693 0.014829
vt 0.894421 0.679748
vt 0.847712 0.706291
vt 0.534895 0.843922
vt 0.742884 0.013295
vt 0.399570 0.916578
vt 0.399570 0.979000
vt 0.355895 0.964924
vt 0.296187 0.205138
vt 0.921881 0.288344
vt 0.373547 0.328956
vt 0.023529 0.196563
vt 0.815812 0.079961
vt 0.829917 0.840456
vt 0.630926 0.522657
vt 0.634574 0.478443
vt 0.634574 0.543069
vt 0.510538 0.916883
vt 0.510538 0.989495
vt 0.489598 0.953665
vt 0.201761 0.509113
vt 0.837566 0.884537
vt 0.420353 0.544435
vt 0.504068 0.542924
vt 0.377580 0.146590
vt 0.197293 0.843993
vt 0.321038 0.884843
vt 0.268873 0.158934
vt 0.447887 0.916460
vn -0.1391 -0.0446 -0.9893
vn -0.8920 0.2813 0.3537
vn -0.5739 0.8189 0.0067
vn -0.9113 0.4073 -0.0601
vn -0.1028 -0.1361 0.9854
vn 0.9968 0.0761 -0.0248
vn 0.9071 -0.0234 -0.4202
vn 0.1310 0.9588 0.2519
vn -0.4358 -0.8840 -0.1691
vn -0.6353 0.5515 0.5406
vn 0.0787 -0.9935 0.0824
vn 0.6876 -0.1574 0.7088
vn 0.2357 0.9698 -0.0627
vn -0.7866 -0.4615 -0.4103
vn -0.7863 -0.4618 -0.4105
vn -0.7862 -0.4623 -0.4101
vn 0.0397 -0.8805 0.4724
vn 0.2705 0.5757 0.7716
vn -0.9458 -0.3202 0.0537
vn -0.5169 -0.3965 -0.7587
vn -0.5170 -0.3963 -0.7587
vn -0.5253 -0.3917 -0.7554
vn 0.1751 -0.8959 -0.4083
vn -0.8036 -0.5948 -0.0206
vn -0.1282 0.2049 -0.9704
vn 0.3264 0.8790 -0.3477
vn -0.4937 -0.2094 0.8441
vn 0.4282 0.0929 0.8989
vn -0.1565 -0.1278 -0.9794
vn -0.9961 -0.0881 0.0051
vn 0.0478 0.0097 0.9988
vn 0.8702 -0.4894 -0.0574
vn -0.3401 0.6579 0.6720
vn 0.1660 -0.4823 -0.8601
vn -0.0682 0.9777 -0.1987
vn -0.2311 0.3968 -0.8884
vn -0.2316 0.3968 -0.8882
vn -0.2315 0.3970 -0.8882
vn -0.4798 -0.0995 0.8717
vn -0.6099 0.5684 -0.5522
vn 0.3938 0.4131 0.8211
vn 0.3940 0.4132 0.8210
vn 0.3939 0.4132 0.8210
vn 0.0383 -0.9373 -0.3465
vn -0.9620 0.2214 -0.1598
vn -0.4922 -0.0497 0.8690
vn 0.8479 0.2834 -0.4480
vn -0.7732 0.0314 0.6334
vn -0.7733 0.0313 0.6333
vn -0.7733 0.0313 0.6332
vn -0.1325 0.5036 0.8537
vn -0.0627 0.3682 -0.9276
vn -0.7701 -0.5987 0.2203
vn -0.7699 -0.5990 0.2203
vn -0.7701 -0.5986 0.2205
vn -0.0636 -0.1556 0.9858
vn 0.4500 -0.2703 -0.8512
vn -0.3104 0.1336 0.9412
vn -0.3104 0.1334 0.9412
vn -0.3103 0.1334 0.9412
vn -0.0157 -0.3741 -0.9273
vn -0.0368 -0.7315 0.6808
vn 0.4184 0.1690 0.8924
vn 0.1256 0.9342 -0.3339
vn -0.3862 0.1554 -0.9092
vn 0.7300 -0.6471 -0.2201
vn -0.2868 -0.5693 -0.7705
vn -0.1450 -0.6384 -0.7559
vn -0.0045 0.0300 0.9995
vn -0.0134 -0.7414 0.6710
vn 0.2333 -0.9724 0.0083
vn -0.0619 -0.2893 0.9552
vn -0.2575 -0.7533 0.6051
vn 0.2664 0.9370 -0.2259
vn 0.1821 0.9745 0.1309
vn -0.9996 -0.0283 -0.0083
vn 0.0773 -0.0618 -0.9951
vn -0.0690 -0.9975 -0.0158
vn 0.1958 0.9806 0.0085
vn 0.0744 0.9826 -0.1701
vn 0.0740 -0.9962 0.0448
vn -0.0547 -0.7114 -0.7006
vn -0.2734 0.1118 0.9554
vn 0.2784 0.6538 -0.7036
vn 0.9420 -0.3091 0.1307
vn 0.7708 -0.4202 0.4788
vn 0.3111 0.1255 -0.9420
vn 0.1592 0.2912 -0.9433
vn -0.0772 -0.4932 0.8665
vn 0.2953 -0.7531 0.5879
vn -0.1071 -0.2099 0.9718
vn 0.0970 0.8464 0.5236
vn -0.9456 -0.2229 0.2369
vn 0.2208 -0.7659 0.6039
vn -0.1443 0.6012 0.7860
vn -0.1441 0.6010 0.7862
vn -0.7848 0.4417 0.4346
vn -0.3564 0.2227 0.9074
vn -0.3565 0.2226 0.9074
vn -0.3404 0.4207 0.8409
vn -0.0459 -0.9856 -0.1626
vn -0.0059 0.1036 -0.9946
vn -0.0060 0.1037 -0.9946
vn -0.0059 0.1037 -0.9946
vn -0.3211 -0.2686 -0.9082
vn -0.9734 0.1075 0.2024
vn -0.7491 0.2671 0.6063
vn -0.0851 0.9848 -0.1518
vn 0.2079 -0.9474 -0.2434
vn -0.6653 -0.0402 -0.7455
vn 0.1316 0.1626 -0.9779
vn -0.1505 0.1804 -0.9720
vn -0.6292 0.4599 0.6266
vn 0.0823 -0.8306 -0.5508
vn 0.1861 -0.9603 -0.2077
vn 0.9779 -0.1012 -0.1827
vn 0.1533 0.8801 0.4494
vn -0.9735 0.2283 0.0140
vn -0.2057 -0.2127 0.9552
vn 0.1151 0.8828 -0.4555
vn 0.1150 0.8828 -0.4555
vn -0.2845 -0.9392 -0.1923
vn 0.1361 -0.3758 -0.9166
vn -0.0671 0.9101 0.4089
vn 0.0755 -0.7704 0.6331
vn -0.1438 -0.7866 0.6005
vn 0.9594 0.0874 -0.2683
vn -0.0910 -0.9763 -0.1964
vn -0.0170 -0.3370 0.9414
vn 0.8456 0.1009 -0.5242
vn 0.2421 0.3311 -0.9120
vn 0.7379 0.1421 -0.6598
vn -0.9403 0.3145 -0.1303
vn -0.2007 -0.6806 -0.7046
vn -0.2826 0.1150 -0.9523
vn 0.4603 -0.2069 -0.8633
vn 0.7370 0.3259 0.5921
vn 0.4915 0.6806 0.5433
vn 0.2437 -0.1404 0.9596
vn 0.1259 0.4801 -0.8682
vn -0.9547 -0.2364 0.1807
vn 0.9780 0.1856 -0.0952
vn 0.6653 -0.6334 0.3951
vn 0.1771 0.5854 -0.7912
vn -0.6731 0.4262 -0.6044
vn -0.3191 -0.0854 -0.9439
vn 0.0692 0.8390 0.5397
vn 0.9387 0.0754 -0.3364
vn -0.5026 0.1040 -0.8583
vn -0.5025 0.1040 -0.8583
vn 0.2031 -0.1580 -0.9663
vn 0.0278 -0.8818 0.4708
vn 0.1278 -0.7955 0.5923
vn 0.4683 -0.3935 0.7911
vn -0.8300 -0.5567 -0.0359
vn 0.0587 0.8613 0.5046
vn 0.5120 -0.4150 -0.7521
vn 0.1994 0.9693 -0.1437
vn 0.4265 -0.5901 -0.6855
vn -0.7307 -0.6100 0.3067
vn -0.0292 0.9527 -0.3026
vn 0.3830 -0.8573 0.3440
vn 0.0567 -0.8158 -0.5755
vn 0.2499 -0.9400 -0.2322
vn -0.3643 0.3278 -0.8717
vn 0.0954 -0.9937 -0.0595
vn -0.4849 -0.7017 0.5219
vn 0.5199 0.1857 -0.8338
vn 0.4612 -0.7607 -0.4569
vn 0.1091 0.8978 0.4266
vn 0.9866 -0.1572 -0.0441
vn 0.9125 0.3699 -0.1747
vn -0.4820 -0.0545 0.8745
vn 0.1041 -0.3852 -0.9170
vn -0.2502 -0.7952 0.5523
vn 0.0436 0.8887 0.4565
vn -0.0939 -0.9901 0.1047
vn 0.1836 0.5963 0.7815
vn 0.1527 0.4032 0.9023
vn -0.0663 0.5974 0.7992
vn -0.1819 0.7891 -0.5868
vn -0.1822 0.7890 -0.5867
vn -0.1822 0.7891 -0.5867
vn -0.0936 0.7660 -0.6359
vn -0.9993 -0.0285 0.0260
vn 0.4930 0.6430 -0.5861
vn 0.0878 -0.3145 0.9452
vn 0.8269 0.4831 -0.2879
vn 0.2554 -0.4310 0.8655
vn -0.2087 0.1423 -0.9676
vn -0.7584 -0.3919 -0.5208
vn 0.2610 -0.8503 -0.4571
vn 0.0885 -0.8855 -0.4561
vn -0.9495 0.0710 0.3057
vn 0.5315 -0.3982 0.7476
vn -0.0767 0.7557 0.6504
vn 0.6072 -0.0109 -0.7945
vn -0.6892 -0.0761 0.7205
vn -0.6893 -0.0761 0.7205
vn 0.9362 -0.2238 -0.2712
vn 0.2698 -0.6188 -0.7378
vn -0.1277 -0.0968 -0.9871
vn -0.2099 -0.8886 0.4078
vn 0.8844 -0.1510 0.4415
vn -0.0645 0.0604 -0.9961
vn 0.2281 -0.8536 -0.4684
vn -0.0660 -0.9556 0.2872
vn 0.6963 0.6908 0.1948
vn -0.9694 -0.0917 -0.2276
vn 0.2219 -0.7689 -0.5997
vn -0.4908 -0.7333 -0.4705
vn 0.1337 -0.2606 -0.9561
vn -0.9758 -0.1355 -0.1715
vn 0.0209 0.5442 0.8387
vn 0.0522 -0.4184 0.9068
vn 0.0303 0.9900 0.1379
vn -0.3659 -0.6736 -0.6422
vn 0.8764 0.4740 0.0850
vn -0.8049 0.2233 0.5498
vn -0.9118 0.2806 0.2998
vn 0.1115 0.2636 -0.9582
vn 0.1756 0.4813 0.8588
vn -0.2329 -0.9069 -0.3511
vn 0.9966 -0.0690 -0.0452
vn 0.0623 -0.9975 -0.0319
vn 0.0796 -0.5439 0.8354
vn -0.7500 0.3911 -0.5335
vn -0.0708 0.0782 0.9944
vn 0.0742 -0.1760 0.9816
vn 0.7427 0.0761 -0.6653
vn -0.1008 -0.7202 -0.6864
vn 0.0699 0.1265 -0.9895
vn -0.0680 -0.6700 0.7392
vn -0.1173 -0.8177 0.5636
vn 0.1116 -0.6855 -0.7195
vn 0.3835 0.2500 -0.8890
vn 0.3092 0.0811 -0.9475
vn -0.3849 -0.5509 0.7405
vn -0.3851 -0.5509 0.7404
vn -0.1558 0.0802 -0.9845
vn -0.0843 0.9948 0.0563
vn -0.0568 0.4949 0.8671
vn 0.1020 0.2910 -0.9513
vn 0.0742 -0.9846 -0.1582
vn -0.1629 -0.7891 0.5923
vn 0.1601 0.3219 0.9331
vn -0.0120 0.9987 -0.0487
vn -0.5850 0.7814 -0.2170
vn -0.1871 0.1652 0.9683
vn 0.2645 -0.8206 -0.5066
vn 0.2667 -0.9419 0.2042
vn 0.6153 -0.5040 -0.6062
vn 0.1758 -0.5089 0.8427
vn -0.8407 -0.0148 -0.5413
vn 0.0681 -0.1725 -0.9827
vn 0.0681 -0.1725 -0.9826
vn -0.5341 0.1317 0.8351
vn -0.5341 0.1316 0.8351
vn 0.1238 0.8554 -0.5029
vn -0.0117 0.9875 0.1574
vn -0.8142 0.4177 -0.4032
vn 0.6503 0.2465 0.7185
vn 0.0170 0.4764 0.8791
vn 0.9674 0.0876 -0.2377
vn 0.0537 0.7381 0.6726
vn -0.1957 0.9721 -0.1291
vn -0.7959 -0.0278 0.6047
vn 0.0214 -0.4061 0.9136
vn -0.4648 -0.8349 0.2949
vn -0.0736 -0.2593 -0.9630
vn -0.0706 0.6497 0.7569
vn 0.7573 0.1330 0.6394
vn -0.0477 0.8656 -0.4984
vn -0.0547 0.8621 -0.5038
vn -0.0474 0.8655 -0.4986
vn 0.5822 -0.8128 -0.0180
vn 0.1032 0.0614 -0.9928
vn 0.8803 -0.0691 -0.4693
vn 0.4883 -0.2704 -0.8297
vn 0.5015 0.1618 -0.8499
vn 0.6720 -0.2677 0.6905
vn 0.8878 0.3153 -0.3352
vn -0.1936 0.3019 -0.9335
vn -0.1937 0.3019 -0.9335
vn -0.1244 0.7292 -0.6729
vn -0.2707 -0.7939 0.5445
vn 0.3210 -0.9471 0.0036
vn 0.1255 0.4409 -0.8887
vn -0.3573 -0.4892 -0.7956
vn -0.3572 -0.4893 -0.7956
vn 0.4802 -0.0469 -0.8759
vn 0.6362 0.2225 0.7388
vn -0.3774 -0.8860 -0.2692
vn 0.6291 0.5685 -0.5302
vn -0.2104 -0.8546 -0.4748
vn -0.9682 -0.1191 -0.2200
vn -0.9682 -0.1190 -0.2201
vn -0.3178 -0.7842 0.5329
vn -0.3224 0.8125 -0.4857
vn -0.3223 0.8126 -0.4856
vn 0.9036 0.3951 -0.1654
vn 0.3386 0.1303 0.9319
vn 0.5972 -0.3451 -0.7240
vn -0.2239 -0.2422 -0.9440
vn 0.9196 -0.3756 -0.1154
vn -0.8842 0.4672 0.0019
vn -0.6934 0.6405 0.3301
vn -0.0583 0.9107 0.4090
vn -0.0586 0.9107 0.4089
vn -0.1808 -0.9835 -0.0053
vn 0.3567 -0.8382 -0.4125
vn 0.6851 -0.5935 0.4224
vn -0.8147 0.5798 0.0090
vn 0.9961 0.0875 -0.0125
vn 0.9367 -0.0453 -0.3472
vn 0.1905 0.9453 0.2649
vn -0.4585 -0.8678 -0.1914
vn -0.6703 0.5702 0.4749
vn 0.0650 -0.9939 0.0886
vn 0.6771 -0.0949 0.7298
vn 0.2049 0.9784 0.0256
vn 0.1968 0.9803 -0.0185
vn 0.2646 0.5867 0.7654
vn -0.9233 -0.3776 0.0694
vn -0.0483 0.9806 -0.1897
vn 0.0543 -0.9283 -0.3680
vn -0.9648 0.2169 -0.1486
vn -0.4796 -0.0498 0.8761
vn 0.8548 0.2969 -0.4255
vn -0.1650 0.5084 0.8452
vn -0.7630 -0.5792 0.2870
vn -0.7628 -0.5794 0.2871
vn 0.1562 -0.7598 0.6311
vn -0.3393 0.4319 0.8356
vn 0.0131 0.9721 -0.2341
vn -0.0085 0.1257 0.9920
usemtl defaultMat
s off
f 1/1/1 2/2/1 3/3/1
f 4/4/2 5/5/2 3/6/2
f 6/7/3 2/8/3 5/9/3
f 3/10/4 7/11/4 6/7/4
f 6/7/5 1/12/5 3/10/5
f 10/13/6 12/14/6 9/15/6
f 13/16/7 15/17/7 16/18/7
f 17/19/8 19/20/8 20/21/8
f 23/22/9 25/23/9 22/24/9
f 26/25/10 28/26/10 29/27/10
f 31/28/11 33/29/11 30/30/11
f 34/31/12 36/32/12 37/33/12
f 39/34/13 40/35/13 17/36/13
f 41/37/14 42/38/15 21/39/16
f 44/40/17 45/41/17 30/30/17
f 49/42/18 20/21/18 48/43/18
f 22/24/19 51/44/19 45/41/19
f 43/45/20 41/46/21 21/47/22
f 6/48/23 52/49/23 53/50/23
f 54/51/24 53/50/24 52/49/24
f 54/52/25 55/53/25 56/54/25
f 38/55/26 57/56/26 58/57/26
f 53/58/27 56/59/27 55/60/27
f 56/61/28 6/62/28 54/63/28
f 59/64/29 60/65/29 61/66/29
f 55/67/30 62/68/30 6/62/30
f 63/69/31 64/70/31 65/71/31
f 2/72/32 4/73/32 3/74/32
f 65/71/33 64/70/33 67/75/33
f 68/76/34 69/77/34 70/78/34
f 71/79/35 73/80/35 74/81/35
f 46/82/36 66/83/37 47/84/38
f 75/85/39 49/42/39 48/43/39
f 26/86/40 76/87/40 27/88/40
f 46/89/41 8/90/42 66/91/43
f 69/92/44 32/93/44 31/28/44
f 18/94/45 79/95/45 80/96/45
f 44/97/46 18/98/46 80/99/46
f 81/100/47 37/101/47 60/65/47
f 47/102/48 8/90/49 46/89/50
f 55/103/51 84/104/51 82/105/51
f 26/86/52 85/106/52 76/87/52
f 86/107/53 42/38/54 41/37/55
f 88/108/56 55/103/56 54/109/56
f 73/80/57 72/110/57 89/111/57
f 41/112/58 43/113/59 90/114/60
f 91/115/61 92/116/61 93/117/61
f 1/118/62 5/119/62 2/120/62
f 94/121/63 95/122/63 35/123/63
f 96/124/64 97/125/64 98/126/64
f 99/127/65 98/126/65 97/125/65
f 100/128/66 101/129/66 102/130/66
f 53/131/67 62/132/67 56/133/67
f 103/134/68 104/135/68 105/136/68
f 88/108/69 54/109/69 52/137/69
f 88/138/70 52/139/70 56/140/70
f 56/140/71 106/141/71 88/138/71
f 107/142/72 108/143/72 105/144/72
f 4/145/73 1/118/73 6/146/73
f 64/147/74 109/148/74 67/149/74
f 38/150/75 58/151/75 39/152/75
f 65/71/76 67/75/76 110/153/76
f 111/154/77 10/13/77 9/15/77
f 32/93/78 112/155/78 33/29/78
f 11/156/79 10/157/79 113/158/79
f 114/159/80 115/160/80 116/161/80
f 4/145/81 92/162/81 1/118/81
f 4/163/82 93/117/82 92/116/82
f 29/27/83 28/26/83 116/164/83
f 57/56/84 117/165/84 58/57/84
f 118/166/85 119/167/85 120/168/85
f 116/169/86 115/170/86 121/171/86
f 85/106/87 59/64/87 91/115/87
f 59/64/88 61/66/88 91/115/88
f 5/5/89 102/172/89 36/32/89
f 51/44/90 122/173/90 119/167/90
f 123/174/91 5/5/91 36/32/91
f 124/175/92 116/164/92 95/122/92
f 7/11/93 3/10/93 86/176/93
f 125/177/94 112/155/94 126/178/94
f 127/179/95 42/180/96 87/181/95
f 7/11/97 93/182/97 4/183/97
f 7/184/98 41/185/99 128/186/98
f 127/179/100 129/187/100 28/26/100
f 56/140/101 130/188/101 106/141/101
f 66/83/102 131/189/103 47/84/104
f 86/190/105 3/191/105 132/192/105
f 123/174/106 3/6/106 5/5/106
f 23/193/107 39/152/107 133/194/107
f 134/195/108 103/134/108 108/196/108
f 30/30/109 120/168/109 135/197/109
f 6/198/110 56/199/110 52/200/110
f 76/87/111 85/106/111 91/115/111
f 136/201/112 91/115/112 90/202/112
f 130/203/113 56/61/113 62/68/113
f 137/204/114 44/40/114 30/30/114
f 138/205/115 139/206/115 140/207/115
f 77/208/116 68/76/116 13/16/116
f 19/20/117 48/43/117 20/21/117
f 48/43/118 19/20/118 44/97/118
f 88/108/119 83/209/119 55/103/119
f 82/210/120 84/211/120 66/212/121
f 135/197/122 31/28/122 30/30/122
f 141/213/123 92/116/123 91/115/123
f 142/214/124 71/215/124 143/216/124
f 144/217/125 145/218/125 35/219/125
f 1/118/126 102/130/126 5/119/126
f 146/220/127 89/111/127 139/221/127
f 1/118/128 92/162/128 102/130/128
f 125/222/129 50/223/129 33/224/129
f 6/225/130 5/226/130 4/227/130
f 115/160/131 81/100/131 59/64/131
f 85/106/132 115/160/132 59/64/132
f 147/228/133 40/35/133 23/229/133
f 25/230/134 148/231/134 51/232/134
f 25/230/135 117/165/135 148/231/135
f 69/77/136 148/231/136 70/78/136
f 6/7/137 7/11/137 2/8/137
f 62/68/138 54/63/138 6/62/138
f 50/223/139 49/42/139 149/233/139
f 57/56/140 68/76/140 70/78/140
f 62/68/141 55/67/141 8/90/141
f 68/76/142 14/234/142 13/16/142
f 89/235/143 72/236/143 142/237/143
f 150/238/144 68/76/144 57/56/144
f 27/88/145 76/87/145 136/201/145
f 76/87/146 91/115/146 136/201/146
f 17/239/147 40/240/147 78/241/147
f 89/242/148 142/243/148 151/244/148
f 66/212/149 8/245/150 82/210/150
f 144/246/151 81/100/151 152/247/151
f 35/219/152 34/248/152 144/217/152
f 153/249/153 140/207/153 154/250/153
f 149/233/154 33/224/154 50/223/154
f 8/251/155 55/252/155 82/253/155
f 143/216/156 155/254/156 142/214/156
f 60/65/157 37/101/157 61/66/157
f 81/100/158 60/65/158 59/64/158
f 89/242/159 154/255/159 140/256/159
f 153/249/160 138/205/160 140/207/160
f 38/55/161 150/238/161 57/56/161
f 157/257/162 151/258/162 155/259/162
f 144/217/163 34/248/163 81/260/163
f 122/173/164 69/92/164 31/28/164
f 146/220/165 158/261/165 74/81/165
f 30/30/166 33/29/166 149/262/166
f 149/262/167 49/263/167 30/30/167
f 144/246/168 152/247/168 159/264/168
f 51/44/169 119/167/169 118/166/169
f 114/265/170 116/164/170 124/175/170
f 139/206/171 89/266/171 140/207/171
f 146/220/172 73/80/172 89/111/172
f 78/241/173 147/267/173 79/268/173
f 68/76/174 77/208/174 69/77/174
f 147/269/175 22/24/175 79/270/175
f 20/21/176 160/271/176 161/272/176
f 122/173/177 31/28/177 119/167/177
f 28/26/178 129/187/178 116/164/178
f 125/222/179 16/273/179 50/223/179
f 50/223/180 160/271/180 20/21/180
f 42/274/181 27/88/182 43/45/183
f 113/275/184 10/13/184 111/154/184
f 111/276/185 162/277/185 163/278/185
f 16/18/186 126/279/186 13/16/186
f 163/278/187 12/280/187 11/156/187
f 89/242/188 151/244/188 154/255/188
f 157/281/189 153/282/189 154/283/189
f 58/57/190 117/165/190 24/284/190
f 22/285/191 80/96/191 79/95/191
f 122/173/192 148/286/192 69/92/192
f 122/173/193 51/44/193 148/286/193
f 75/85/194 48/43/194 44/97/194
f 49/42/195 137/287/195 30/288/195
f 113/158/196 163/278/196 11/156/196
f 115/160/197 85/106/197 121/289/197
f 47/102/198 62/68/199 8/90/199
f 32/290/200 13/16/200 112/291/200
f 126/279/201 112/291/201 13/16/201
f 25/230/202 24/284/202 117/165/202
f 44/40/203 80/292/203 45/41/203
f 102/172/204 101/293/204 36/32/204
f 67/149/205 109/148/205 110/294/205
f 109/295/206 63/296/206 110/297/206
f 63/296/207 65/298/207 110/297/207
f 64/70/208 63/69/208 109/299/208
f 99/127/209 164/300/209 98/126/209
f 92/162/210 141/301/210 102/130/210
f 158/302/211 139/206/211 138/205/211
f 146/220/212 139/221/212 158/261/212
f 103/134/213 105/136/213 108/196/213
f 94/121/214 35/123/214 145/303/214
f 94/121/215 124/175/215 95/122/215
f 142/214/216 72/304/216 71/215/216
f 91/115/217 100/305/217 141/213/217
f 159/306/218 114/265/218 124/175/218
f 147/267/219 78/241/219 40/240/219
f 24/307/220 23/193/220 133/194/220
f 103/134/221 134/195/221 104/135/221
f 107/142/222 134/308/222 108/143/222
f 100/128/223 102/130/223 141/301/223
f 107/309/224 104/135/224 134/195/224
f 104/310/225 107/311/225 105/312/225
f 94/121/226 159/306/226 124/175/226
f 23/229/227 40/35/227 39/34/227
f 36/32/228 129/187/228 123/174/228
f 165/313/229 96/314/229 164/315/229
f 96/124/230 165/316/230 97/125/230
f 111/154/231 9/15/231 162/317/231
f 152/247/232 81/100/232 115/160/232
f 162/318/233 12/319/233 163/320/233
f 99/321/234 165/322/234 164/323/234
f 165/316/235 99/127/235 97/125/235
f 57/56/236 70/78/236 117/165/236
f 70/78/237 148/231/237 117/165/237
f 90/114/238 166/324/238 41/112/239
f 90/202/240 91/115/240 166/325/240
f 38/150/241 20/21/241 161/272/241
f 164/315/242 96/314/242 98/326/242
f 6/327/243 53/328/243 55/329/243
f 162/318/244 9/330/244 12/319/244
f 123/331/245 132/332/245 3/333/245
f 87/181/246 123/174/246 127/179/246
f 38/150/247 161/272/247 156/334/247
f 132/192/248 87/335/248 86/190/248
f 87/181/249 132/336/249 123/174/249
f 61/337/250 37/338/250 101/339/250
f 37/338/251 36/340/251 101/339/251
f 16/18/252 15/17/252 160/341/252
f 16/273/253 160/271/253 50/223/253
f 62/132/254 53/131/254 54/342/254
f 106/343/255 130/344/255 47/84/256
f 130/203/257 62/68/257 47/102/258
f 146/220/259 74/81/259 73/80/259
f 58/151/260 133/194/260 39/152/260
f 58/57/261 24/284/261 133/345/261
f 154/283/262 151/346/262 157/281/262
f 155/254/263 143/216/263 157/281/263
f 159/264/264 145/347/264 144/246/264
f 94/121/265 145/303/265 159/306/265
f 17/348/266 78/349/266 18/94/266
f 157/281/267 143/216/267 153/282/267
f 75/85/268 137/287/268 49/42/268
f 75/350/269 44/40/269 137/204/269
f 91/115/270 93/117/270 166/325/270
f 95/122/271 116/164/271 129/187/271
f 125/222/272 126/351/272 16/273/272
f 43/45/273 21/47/274 42/274/275
f 14/352/276 156/353/276 15/354/276
f 61/66/277 100/305/277 91/115/277
f 61/66/278 101/355/278 100/305/278
f 155/356/279 151/244/279 142/243/279
f 26/86/280 121/289/280 85/106/280
f 29/27/281 116/164/281 121/357/281
f 29/358/282 121/289/282 26/86/282
f 43/45/283 136/201/284 90/202/284
f 27/88/285 136/201/285 43/45/285
f 31/28/286 135/197/286 119/167/286
f 120/168/287 119/167/287 135/197/287
f 114/159/288 152/247/288 115/160/288
f 131/189/289 106/343/289 47/84/290
f 159/264/291 152/247/291 114/159/291
f 156/334/292 161/272/292 15/359/292
f 22/24/293 45/41/293 80/292/293
f 15/17/294 161/360/294 160/341/294
f 147/269/295 23/22/295 22/24/295
f 41/361/296 7/362/297 86/363/297
f 7/364/298 128/365/298 93/366/298
f 41/46/299 166/325/300 128/367/300
f 150/238/301 14/234/301 68/76/301
f 95/122/302 36/32/302 35/123/302
f 150/238/303 156/368/303 14/234/303
f 93/117/304 128/367/304 166/325/304
f 77/369/305 13/370/305 32/93/305
f 163/278/306 113/158/306 111/276/306
f 27/371/307 127/179/307 28/26/307
f 42/180/308 127/179/309 27/371/309
f 118/166/310 45/41/310 51/44/310
f 45/41/311 120/168/311 30/30/311
f 118/166/312 120/168/312 45/41/312
f 7/11/313 4/183/313 2/8/313
f 10/13/314 11/372/314 12/14/314
f 13/16/315 14/234/315 15/17/315
f 17/19/316 18/98/316 19/20/316
f 23/22/317 24/373/317 25/23/317
f 26/25/318 27/371/318 28/26/318
f 31/28/319 32/93/319 33/29/319
f 34/31/320 35/123/320 36/32/320
f 17/19/321 20/21/321 38/150/321
f 38/150/322 39/152/322 17/19/322
f 49/42/323 50/223/323 20/21/323
f 22/24/324 25/23/324 51/44/324
f 71/79/325 72/110/325 73/80/325
f 69/92/326 77/369/326 32/93/326
f 18/94/327 78/349/327 79/95/327
f 44/97/328 19/20/328 18/98/328
f 81/100/329 34/374/329 37/101/329
f 55/103/330 83/209/330 84/104/330
f 86/107/331 87/375/331 42/38/332
f 125/177/333 33/29/333 112/155/333
f 127/179/334 123/174/334 129/187/334
f 38/55/335 156/368/335 150/238/335
f 36/32/336 95/122/336 129/187/336
